# Blender v2.83.5 OBJ File: 'untitled.blend'
# www.blender.org
mtllib untitled.mtl
o Cube
v 1.000000 1.000000 -1.000000
v 1.000000 -1.000000 -1.000000
v 1.000000 1.000000 1.000000
v 1.000000 -1.000000 1.000000
v -1.000000 1.000000 -1.000000
v -1.000000 -1.000000 -1.000000
v -1.000000 1.000000 1.000000
v -1.000000 -1.000000 1.000000
vt 1.007127 -0.019984
vt -0.005800 0.997205
vt 0.002724 0.001327
vt 0.993014 -0.010132
vt 0.967441 0.975895
vt 0.011249 -0.004262
vt 0.988751 0.983092
vt -0.008595 0.993084
vt -0.004332 0.998673
vt 1.003006 -0.017189
vt 0.009922 -0.011459
vt 1.004333 -0.007197
vt -0.004332 0.988681
vt 0.004192 -0.011459
vt 1.008595 -0.014254
vt 0.977292 0.980157
vt 0.015511 -0.001608
vt 0.983022 0.992943
vn 0.0000 1.0000 0.0000
vn 0.0000 0.0000 1.0000
vn -1.0000 0.0000 0.0000
vn 0.0000 -1.0000 0.0000
vn 1.0000 0.0000 0.0000
vn 0.0000 0.0000 -1.0000
g Cube_Cube_Material
usemtl Material
s off
f 5/1/1 3/2/1 1/3/1
f 3/2/2 8/4/2 4/5/2
f 7/6/3 6/7/3 8/8/3
f 2/9/4 8/10/4 6/11/4
f 1/12/5 4/13/5 2/14/5
f 5/15/6 2/9/6 6/7/6
f 5/1/1 7/16/1 3/2/1
f 3/2/2 7/17/2 8/4/2
f 7/6/3 5/15/3 6/7/3
f 2/9/4 4/5/4 8/10/4
f 1/12/5 3/18/5 4/13/5
f 5/15/6 1/3/6 2/9/6
